<svg width="468" height="202" viewBox="0 0 468 202" fill="none" xmlns="http://www.w3.org/2000/svg">
<g filter="url(#filter0_d)">
<mask id="path-1-inside-1" fill="white">
<path fill-rule="evenodd" clip-rule="evenodd" d="M211.138 0L128 99L149.145 86.5376L139.138 99L152.429 84.6023L211.138 50L264.737 81.59L280.138 99L268.405 83.7517L294.277 99L211.138 0ZM268.405 83.7517L264.737 81.59L211.138 21L152.429 84.6023L149.145 86.5376L211.138 9.3299L268.405 83.7517ZM248.604 134C246.108 131.696 242.972 130.544 239.196 130.544C235.548 130.544 232.348 131.344 229.596 132.944C226.908 134.48 224.796 136.56 223.26 139.184V98H212.7V172.88H223.452V154.832C223.452 150.48 224.508 146.864 226.62 143.984C228.796 141.104 231.548 139.664 234.876 139.664C237.116 139.728 238.78 140.368 239.868 141.584C241.02 142.8 241.66 144.464 241.788 146.576V172.88H252.54V142.736C252.476 139.152 251.164 136.24 248.604 134ZM186.775 114.416V132.272H197.336V140.72H186.775V172.88H176.024V140.72H169.016V132.272H176.024V114.416H186.775ZM85.0403 164.72C88.0483 164.72 91.0883 163.664 94.1603 161.552L99.0563 169.52C96.8803 170.864 94.5443 171.952 92.0483 172.784C89.5523 173.552 87.1523 173.936 84.8483 173.936C80.1763 173.936 76.1123 173.008 72.6563 171.152C69.2643 169.296 66.6403 166.736 64.7843 163.472C62.9922 160.208 62.0963 156.464 62.0963 152.24C62.0963 148.272 63.1203 144.624 65.1683 141.296C67.2163 137.968 70.0002 135.344 73.5202 133.424C77.0403 131.44 80.8803 130.448 85.0403 130.448C90.5443 130.448 95.1203 132.08 98.7683 135.344C102.416 138.544 104.848 143.088 106.064 148.976L74.7683 159.536C75.8563 161.2 77.2962 162.48 79.0882 163.376C80.8802 164.272 82.8643 164.72 85.0403 164.72ZM84.1763 138.896C80.7843 138.896 78.0003 140.08 75.8243 142.448C73.7123 144.816 72.6563 147.888 72.6563 151.664C72.6563 152.368 72.6882 152.912 72.7522 153.296L94.0643 145.712C93.2323 143.728 92.0163 142.096 90.4162 140.816C88.8162 139.536 86.7363 138.896 84.1763 138.896ZM32.496 130.544C36.272 130.544 39.408 131.696 41.904 134C44.464 136.24 45.776 139.152 45.84 142.736V172.88H35.088V146.576C34.96 144.464 34.32 142.8 33.168 141.584C32.08 140.368 30.416 139.728 28.176 139.664C24.848 139.664 22.096 141.104 19.92 143.984C17.808 146.8 16.752 150.416 16.752 154.832V172.88H6V132.272H15.696L16.464 139.472C17.936 136.656 20.048 134.48 22.8 132.944C25.616 131.344 28.848 130.544 32.496 130.544ZM135.105 159.44L145.377 172.88H158.042L158.02 179.491L158 185.491L164 185.511L257.999 185.823L263.999 185.843L264.019 179.843L264.304 94.3524L264.324 88.3524L258.324 88.3325L164.324 88.0199L158.324 88L158.304 94L158.043 172.49L142.497 151.856L156.513 132.272H145.761L137.505 145.328L127.617 132.272H114.273L129.729 152.528L114.753 172.88H125.601L135.105 159.44ZM268.796 152.144C268.796 148.112 269.756 144.432 271.676 141.104C273.66 137.776 276.38 135.184 279.836 133.328C283.292 131.408 287.228 130.448 291.644 130.448C296.06 130.448 299.964 131.408 303.356 133.328C306.812 135.184 309.468 137.776 311.324 141.104C313.18 144.368 314.108 148.048 314.108 152.144C314.108 156.24 313.18 159.952 311.324 163.28C309.468 166.544 306.812 169.136 303.356 171.056C299.964 172.976 296.028 173.936 291.548 173.936C287.196 173.936 283.292 173.072 279.836 171.344C276.38 169.552 273.66 167.024 271.676 163.76C269.756 160.432 268.796 156.56 268.796 152.144ZM279.644 152.24C279.644 155.888 280.764 158.96 283.004 161.456C285.244 163.888 288.028 165.104 291.356 165.104C294.812 165.104 297.628 163.888 299.804 161.456C302.044 159.024 303.164 155.952 303.164 152.24C303.164 148.528 302.044 145.456 299.804 143.024C297.628 140.528 294.812 139.28 291.356 139.28C288.028 139.28 285.244 140.56 283.004 143.12C280.764 145.616 279.644 148.656 279.644 152.24ZM392.318 133.808C390.014 131.568 386.878 130.448 382.91 130.448C380.158 130.448 377.502 131.184 374.942 132.656C372.382 134.128 370.27 136.176 368.606 138.8C367.902 136.112 366.43 134.064 364.19 132.656C362.014 131.184 359.294 130.448 356.03 130.448C352.638 130.448 349.63 131.216 347.006 132.752C344.382 134.288 342.302 136.496 340.766 139.376L339.902 132.272H330.206V172.88H340.958V154.64C340.958 152.144 341.406 149.744 342.302 147.44C343.262 145.136 344.574 143.28 346.238 141.872C347.902 140.464 349.822 139.76 351.998 139.76C353.982 139.888 355.39 140.56 356.222 141.776C357.118 142.992 357.63 144.656 357.758 146.768V172.88H368.606V154.64C368.67 150.672 369.726 147.216 371.774 144.272C373.822 141.264 376.51 139.76 379.838 139.76C381.758 139.888 383.134 140.56 383.966 141.776C384.798 142.928 385.278 144.592 385.406 146.768V172.88H396.062V142.64C395.934 138.992 394.686 136.048 392.318 133.808ZM435.215 164.72C438.223 164.72 441.263 163.664 444.335 161.552L449.231 169.52C447.055 170.864 444.719 171.952 442.223 172.784C439.727 173.552 437.327 173.936 435.023 173.936C430.351 173.936 426.287 173.008 422.831 171.152C419.439 169.296 416.815 166.736 414.959 163.472C413.167 160.208 412.271 156.464 412.271 152.24C412.271 148.272 413.295 144.624 415.343 141.296C417.391 137.968 420.175 135.344 423.695 133.424C427.215 131.44 431.055 130.448 435.215 130.448C440.719 130.448 445.295 132.08 448.943 135.344C452.591 138.544 455.023 143.088 456.239 148.976L424.943 159.536C426.031 161.2 427.471 162.48 429.263 163.376C431.055 164.272 433.039 164.72 435.215 164.72ZM434.351 138.896C430.959 138.896 428.175 140.08 425.999 142.448C423.887 144.816 422.831 147.888 422.831 151.664C422.831 152.368 422.863 152.912 422.927 153.296L444.239 145.712C443.407 143.728 442.191 142.096 440.591 140.816C438.991 139.536 436.911 138.896 434.351 138.896ZM164.304 94.0199L258.304 94.3325L258.019 179.823L164.02 179.511L164.304 94.0199Z"/>
</mask>
<path fill-rule="evenodd" clip-rule="evenodd" d="M211.138 0L128 99L149.145 86.5376L139.138 99L152.429 84.6023L211.138 50L264.737 81.59L280.138 99L268.405 83.7517L294.277 99L211.138 0ZM268.405 83.7517L264.737 81.59L211.138 21L152.429 84.6023L149.145 86.5376L211.138 9.3299L268.405 83.7517ZM248.604 134C246.108 131.696 242.972 130.544 239.196 130.544C235.548 130.544 232.348 131.344 229.596 132.944C226.908 134.48 224.796 136.56 223.26 139.184V98H212.7V172.88H223.452V154.832C223.452 150.48 224.508 146.864 226.62 143.984C228.796 141.104 231.548 139.664 234.876 139.664C237.116 139.728 238.78 140.368 239.868 141.584C241.02 142.8 241.66 144.464 241.788 146.576V172.88H252.54V142.736C252.476 139.152 251.164 136.24 248.604 134ZM186.775 114.416V132.272H197.336V140.72H186.775V172.88H176.024V140.72H169.016V132.272H176.024V114.416H186.775ZM85.0403 164.72C88.0483 164.72 91.0883 163.664 94.1603 161.552L99.0563 169.52C96.8803 170.864 94.5443 171.952 92.0483 172.784C89.5523 173.552 87.1523 173.936 84.8483 173.936C80.1763 173.936 76.1123 173.008 72.6563 171.152C69.2643 169.296 66.6403 166.736 64.7843 163.472C62.9922 160.208 62.0963 156.464 62.0963 152.24C62.0963 148.272 63.1203 144.624 65.1683 141.296C67.2163 137.968 70.0002 135.344 73.5202 133.424C77.0403 131.44 80.8803 130.448 85.0403 130.448C90.5443 130.448 95.1203 132.08 98.7683 135.344C102.416 138.544 104.848 143.088 106.064 148.976L74.7683 159.536C75.8563 161.2 77.2962 162.48 79.0882 163.376C80.8802 164.272 82.8643 164.72 85.0403 164.72ZM84.1763 138.896C80.7843 138.896 78.0003 140.08 75.8243 142.448C73.7123 144.816 72.6563 147.888 72.6563 151.664C72.6563 152.368 72.6882 152.912 72.7522 153.296L94.0643 145.712C93.2323 143.728 92.0163 142.096 90.4162 140.816C88.8162 139.536 86.7363 138.896 84.1763 138.896ZM32.496 130.544C36.272 130.544 39.408 131.696 41.904 134C44.464 136.24 45.776 139.152 45.84 142.736V172.88H35.088V146.576C34.96 144.464 34.32 142.8 33.168 141.584C32.08 140.368 30.416 139.728 28.176 139.664C24.848 139.664 22.096 141.104 19.92 143.984C17.808 146.8 16.752 150.416 16.752 154.832V172.88H6V132.272H15.696L16.464 139.472C17.936 136.656 20.048 134.48 22.8 132.944C25.616 131.344 28.848 130.544 32.496 130.544ZM135.105 159.44L145.377 172.88H158.042L158.02 179.491L158 185.491L164 185.511L257.999 185.823L263.999 185.843L264.019 179.843L264.304 94.3524L264.324 88.3524L258.324 88.3325L164.324 88.0199L158.324 88L158.304 94L158.043 172.49L142.497 151.856L156.513 132.272H145.761L137.505 145.328L127.617 132.272H114.273L129.729 152.528L114.753 172.88H125.601L135.105 159.44ZM268.796 152.144C268.796 148.112 269.756 144.432 271.676 141.104C273.66 137.776 276.38 135.184 279.836 133.328C283.292 131.408 287.228 130.448 291.644 130.448C296.06 130.448 299.964 131.408 303.356 133.328C306.812 135.184 309.468 137.776 311.324 141.104C313.18 144.368 314.108 148.048 314.108 152.144C314.108 156.24 313.18 159.952 311.324 163.28C309.468 166.544 306.812 169.136 303.356 171.056C299.964 172.976 296.028 173.936 291.548 173.936C287.196 173.936 283.292 173.072 279.836 171.344C276.38 169.552 273.66 167.024 271.676 163.76C269.756 160.432 268.796 156.56 268.796 152.144ZM279.644 152.24C279.644 155.888 280.764 158.96 283.004 161.456C285.244 163.888 288.028 165.104 291.356 165.104C294.812 165.104 297.628 163.888 299.804 161.456C302.044 159.024 303.164 155.952 303.164 152.24C303.164 148.528 302.044 145.456 299.804 143.024C297.628 140.528 294.812 139.28 291.356 139.28C288.028 139.28 285.244 140.56 283.004 143.12C280.764 145.616 279.644 148.656 279.644 152.24ZM392.318 133.808C390.014 131.568 386.878 130.448 382.91 130.448C380.158 130.448 377.502 131.184 374.942 132.656C372.382 134.128 370.27 136.176 368.606 138.8C367.902 136.112 366.43 134.064 364.19 132.656C362.014 131.184 359.294 130.448 356.03 130.448C352.638 130.448 349.63 131.216 347.006 132.752C344.382 134.288 342.302 136.496 340.766 139.376L339.902 132.272H330.206V172.88H340.958V154.64C340.958 152.144 341.406 149.744 342.302 147.44C343.262 145.136 344.574 143.28 346.238 141.872C347.902 140.464 349.822 139.76 351.998 139.76C353.982 139.888 355.39 140.56 356.222 141.776C357.118 142.992 357.63 144.656 357.758 146.768V172.88H368.606V154.64C368.67 150.672 369.726 147.216 371.774 144.272C373.822 141.264 376.51 139.76 379.838 139.76C381.758 139.888 383.134 140.56 383.966 141.776C384.798 142.928 385.278 144.592 385.406 146.768V172.88H396.062V142.64C395.934 138.992 394.686 136.048 392.318 133.808ZM435.215 164.72C438.223 164.72 441.263 163.664 444.335 161.552L449.231 169.52C447.055 170.864 444.719 171.952 442.223 172.784C439.727 173.552 437.327 173.936 435.023 173.936C430.351 173.936 426.287 173.008 422.831 171.152C419.439 169.296 416.815 166.736 414.959 163.472C413.167 160.208 412.271 156.464 412.271 152.24C412.271 148.272 413.295 144.624 415.343 141.296C417.391 137.968 420.175 135.344 423.695 133.424C427.215 131.44 431.055 130.448 435.215 130.448C440.719 130.448 445.295 132.08 448.943 135.344C452.591 138.544 455.023 143.088 456.239 148.976L424.943 159.536C426.031 161.2 427.471 162.48 429.263 163.376C431.055 164.272 433.039 164.72 435.215 164.72ZM434.351 138.896C430.959 138.896 428.175 140.08 425.999 142.448C423.887 144.816 422.831 147.888 422.831 151.664C422.831 152.368 422.863 152.912 422.927 153.296L444.239 145.712C443.407 143.728 442.191 142.096 440.591 140.816C438.991 139.536 436.911 138.896 434.351 138.896ZM164.304 94.0199L258.304 94.3325L258.019 179.823L164.02 179.511L164.304 94.0199Z" fill="#BC8B0D" fill-opacity="0.9"/>
<path d="M128 99L124.937 96.4276L130.031 102.446L128 99ZM211.138 0L214.202 -2.57238L211.138 -6.21993L208.075 -2.57238L211.138 0ZM139.138 99L136.019 96.4956L142.078 101.713L139.138 99ZM211.138 50L213.169 46.554L211.138 45.357L209.107 46.554L211.138 50ZM280.138 99L277.142 101.65L283.309 96.5606L280.138 99ZM294.277 99L292.246 102.446L297.34 96.4276L294.277 99ZM211.138 21L214.134 18.3497L211.202 15.0343L208.199 18.2869L211.138 21ZM211.138 9.3299L214.309 6.89054L211.205 2.85774L208.019 6.82552L211.138 9.3299ZM248.604 134L245.891 136.939L245.93 136.975L245.97 137.01L248.604 134ZM229.596 132.944L231.581 136.417L231.594 136.41L231.606 136.402L229.596 132.944ZM223.26 139.184H219.26V153.935L226.712 141.205L223.26 139.184ZM223.26 98H227.26V94H223.26V98ZM212.7 98V94H208.7V98H212.7ZM212.7 172.88H208.7V176.88H212.7V172.88ZM223.452 172.88V176.88H227.452V172.88H223.452ZM226.62 143.984L223.429 141.573L223.411 141.595L223.394 141.619L226.62 143.984ZM234.876 139.664L234.99 135.666L234.933 135.664H234.876V139.664ZM239.868 141.584L236.887 144.251L236.925 144.294L236.964 144.335L239.868 141.584ZM241.788 146.576H245.788V146.455L245.781 146.334L241.788 146.576ZM241.788 172.88H237.788V176.88H241.788V172.88ZM252.54 172.88V176.88H256.54V172.88H252.54ZM252.54 142.736H256.54V142.7L256.539 142.665L252.54 142.736ZM186.775 132.272H182.775V136.272H186.775V132.272ZM186.775 114.416H190.775V110.416H186.775V114.416ZM197.336 132.272H201.336V128.272H197.336V132.272ZM197.336 140.72V144.72H201.336V140.72H197.336ZM186.775 140.72V136.72H182.775V140.72H186.775ZM186.775 172.88V176.88H190.775V172.88H186.775ZM176.024 172.88H172.024V176.88H176.024V172.88ZM176.024 140.72H180.024V136.72H176.024V140.72ZM169.016 140.72H165.016V144.72H169.016V140.72ZM169.016 132.272V128.272H165.016V132.272H169.016ZM176.024 132.272V136.272H180.024V132.272H176.024ZM176.024 114.416V110.416H172.024V114.416H176.024ZM94.1603 161.552L97.5683 159.458L95.3639 155.87L91.8942 158.256L94.1603 161.552ZM99.0563 169.52L101.158 172.923L104.554 170.826L102.464 167.426L99.0563 169.52ZM92.0483 172.784L93.2246 176.607L93.2691 176.593L93.3132 176.579L92.0483 172.784ZM72.6563 171.152L70.7362 174.661L70.75 174.669L70.7638 174.676L72.6563 171.152ZM64.7843 163.472L61.2779 165.397L61.2923 165.423L61.3071 165.449L64.7843 163.472ZM73.5202 133.424L75.4357 136.936L75.4601 136.922L75.4843 136.909L73.5202 133.424ZM98.7683 135.344L96.1011 138.325L96.1157 138.338L96.1305 138.351L98.7683 135.344ZM106.064 148.976L107.343 152.766L110.698 151.634L109.982 148.167L106.064 148.976ZM74.7683 159.536L73.4894 155.746L68.5916 157.399L71.4204 161.725L74.7683 159.536ZM79.0882 163.376L80.8771 159.798L80.8771 159.798L79.0882 163.376ZM75.8243 142.448L72.8789 139.742L72.8589 139.763L72.8391 139.786L75.8243 142.448ZM72.7522 153.296L68.8067 153.954L69.5921 158.666L74.0933 157.065L72.7522 153.296ZM94.0643 145.712L95.4053 149.481L99.3878 148.063L97.753 144.165L94.0643 145.712ZM41.904 134L39.1909 136.939L39.23 136.975L39.27 137.01L41.904 134ZM45.84 142.736H49.84V142.7L49.8394 142.665L45.84 142.736ZM45.84 172.88V176.88H49.84V172.88H45.84ZM35.088 172.88H31.088V176.88H35.088V172.88ZM35.088 146.576H39.088V146.455L39.0807 146.334L35.088 146.576ZM33.168 141.584L30.187 144.251L30.225 144.294L30.2642 144.335L33.168 141.584ZM28.176 139.664L28.2902 135.666L28.2331 135.664H28.176V139.664ZM19.92 143.984L16.7285 141.573L16.72 141.584L19.92 143.984ZM16.752 172.88V176.88H20.752V172.88H16.752ZM6 172.88H2V176.88H6V172.88ZM6 132.272V128.272H2V132.272H6ZM15.696 132.272L19.6734 131.848L19.292 128.272H15.696V132.272ZM16.464 139.472L12.4866 139.896L13.888 153.035L20.0089 141.325L16.464 139.472ZM22.8 132.944L24.7495 136.437L24.7628 136.429L24.776 136.422L22.8 132.944ZM145.377 172.88L142.199 175.309L143.4 176.88H145.377V172.88ZM135.105 159.44L138.283 157.011L134.98 152.689L131.839 157.131L135.105 159.44ZM158.042 172.88L162.042 172.893L162.055 168.88H158.042V172.88ZM158.02 179.491L162.02 179.504L162.02 179.504L158.02 179.491ZM158 185.491L154 185.477L153.987 189.477L157.987 189.491L158 185.491ZM164 185.511L163.987 189.511L163.987 189.511L164 185.511ZM257.999 185.823L258.013 181.823L258.013 181.823L257.999 185.823ZM263.999 185.843L263.986 189.843L267.986 189.856L267.999 185.856L263.999 185.843ZM264.019 179.843L268.019 179.856L268.019 179.856L264.019 179.843ZM264.304 94.3524L260.304 94.3391L260.304 94.3391L264.304 94.3524ZM264.324 88.3524L268.324 88.3657L268.337 84.3658L264.337 84.3525L264.324 88.3524ZM258.324 88.3325L258.31 92.3325L258.31 92.3325L258.324 88.3325ZM164.324 88.0199L164.337 84.02L164.337 84.02L164.324 88.0199ZM158.324 88L158.337 84L154.337 83.9867L154.324 87.9867L158.324 88ZM158.304 94L154.304 93.9867L154.304 93.9867L158.304 94ZM158.043 172.49L154.848 174.897L162.004 184.394L162.043 172.503L158.043 172.49ZM142.497 151.856L139.244 149.528L137.535 151.917L139.302 154.263L142.497 151.856ZM156.513 132.272L159.766 134.6L164.295 128.272H156.513V132.272ZM145.761 132.272V128.272H143.558L142.38 130.134L145.761 132.272ZM137.505 145.328L134.316 147.743L137.801 152.344L140.886 147.466L137.505 145.328ZM127.617 132.272L130.806 129.857L129.605 128.272H127.617V132.272ZM114.273 132.272V128.272H106.189L111.093 134.698L114.273 132.272ZM129.729 152.528L132.951 154.899L134.727 152.484L132.909 150.102L129.729 152.528ZM114.753 172.88L111.531 170.509L106.843 176.88H114.753V172.88ZM125.601 172.88V176.88H127.671L128.867 175.189L125.601 172.88ZM271.676 141.104L268.24 139.056L268.226 139.08L268.211 139.105L271.676 141.104ZM279.836 133.328L281.729 136.852L281.754 136.838L281.779 136.825L279.836 133.328ZM303.356 133.328L301.386 136.809L301.425 136.831L301.464 136.852L303.356 133.328ZM311.324 141.104L307.831 143.052L307.839 143.067L307.847 143.081L311.324 141.104ZM311.324 163.28L314.801 165.257L314.81 165.243L314.818 165.228L311.324 163.28ZM303.356 171.056L301.414 167.559L301.4 167.567L301.386 167.575L303.356 171.056ZM279.836 171.344L277.995 174.895L278.021 174.909L278.047 174.922L279.836 171.344ZM271.676 163.76L268.211 165.759L268.234 165.799L268.258 165.838L271.676 163.76ZM283.004 161.456L280.027 164.128L280.045 164.147L280.062 164.166L283.004 161.456ZM299.804 161.456L296.862 158.746L296.843 158.767L296.823 158.789L299.804 161.456ZM299.804 143.024L296.789 145.653L296.825 145.694L296.862 145.734L299.804 143.024ZM283.004 143.12L285.981 145.792L285.998 145.773L286.015 145.754L283.004 143.12ZM392.318 133.808L389.53 136.676L389.55 136.695L389.569 136.714L392.318 133.808ZM368.606 138.8L364.737 139.813L367.064 148.701L371.984 140.942L368.606 138.8ZM364.19 132.656L361.949 135.969L362.005 136.007L362.061 136.043L364.19 132.656ZM340.766 139.376L336.795 139.859L338.327 152.45L344.296 141.258L340.766 139.376ZM339.902 132.272L343.873 131.789L343.445 128.272H339.902V132.272ZM330.206 132.272V128.272H326.206V132.272H330.206ZM330.206 172.88H326.206V176.88H330.206V172.88ZM340.958 172.88V176.88H344.958V172.88H340.958ZM342.302 147.44L338.61 145.902L338.591 145.946L338.574 145.99L342.302 147.44ZM351.998 139.76L352.256 135.768L352.127 135.76H351.998V139.76ZM356.222 141.776L352.921 144.035L352.961 144.092L353.002 144.149L356.222 141.776ZM357.758 146.768H361.758V146.647L361.751 146.526L357.758 146.768ZM357.758 172.88H353.758V176.88H357.758V172.88ZM368.606 172.88V176.88H372.606V172.88H368.606ZM368.606 154.64L364.607 154.576L364.606 154.608V154.64H368.606ZM371.774 144.272L375.058 146.556L375.069 146.54L375.081 146.523L371.774 144.272ZM379.838 139.76L380.104 135.769L379.971 135.76H379.838V139.76ZM383.966 141.776L380.665 144.035L380.694 144.077L380.723 144.118L383.966 141.776ZM385.406 146.768H389.406V146.65L389.399 146.533L385.406 146.768ZM385.406 172.88H381.406V176.88H385.406V172.88ZM396.062 172.88V176.88H400.062V172.88H396.062ZM396.062 142.64H400.062V142.57L400.06 142.5L396.062 142.64ZM444.335 161.552L447.743 159.458L445.539 155.87L442.069 158.256L444.335 161.552ZM449.231 169.52L451.333 172.923L454.729 170.826L452.639 167.426L449.231 169.52ZM442.223 172.784L443.4 176.607L443.444 176.593L443.488 176.579L442.223 172.784ZM422.831 171.152L420.911 174.661L420.925 174.669L420.939 174.676L422.831 171.152ZM414.959 163.472L411.453 165.397L411.467 165.423L411.482 165.449L414.959 163.472ZM423.695 133.424L425.611 136.936L425.635 136.922L425.659 136.909L423.695 133.424ZM448.943 135.344L446.276 138.325L446.291 138.338L446.305 138.351L448.943 135.344ZM456.239 148.976L457.518 152.766L460.873 151.634L460.157 148.167L456.239 148.976ZM424.943 159.536L423.664 155.746L418.767 157.399L421.595 161.725L424.943 159.536ZM429.263 163.376L431.052 159.798L431.052 159.798L429.263 163.376ZM425.999 142.448L423.054 139.742L423.034 139.763L423.014 139.786L425.999 142.448ZM422.927 153.296L418.982 153.954L419.767 158.666L424.268 157.065L422.927 153.296ZM444.239 145.712L445.58 149.481L449.563 148.063L447.928 144.165L444.239 145.712ZM258.304 94.3325L262.304 94.3458L262.317 90.3458L258.317 90.3325L258.304 94.3325ZM164.304 94.0199L164.317 90.0199L160.317 90.0066L160.304 94.0066L164.304 94.0199ZM258.019 179.823L258.006 183.823L262.006 183.836L262.019 179.836L258.019 179.823ZM164.02 179.511L160.02 179.497L160.007 183.497L164.007 183.511L164.02 179.511ZM131.063 101.572L214.202 2.57238L208.075 -2.57238L124.937 96.4276L131.063 101.572ZM147.114 83.0915L125.969 95.554L130.031 102.446L151.176 89.9836L147.114 83.0915ZM142.257 101.504L152.264 89.0419L146.026 84.0332L136.019 96.4956L142.257 101.504ZM149.489 81.8892L136.199 96.2869L142.078 101.713L155.368 87.3154L149.489 81.8892ZM209.107 46.554L150.398 81.1563L154.46 88.0483L213.169 53.446L209.107 46.554ZM266.768 78.144L213.169 46.554L209.107 53.446L262.706 85.036L266.768 78.144ZM283.134 96.3497L267.733 78.9397L261.741 84.2403L277.142 101.65L283.134 96.3497ZM265.235 86.1911L276.968 101.439L283.309 96.5606L271.575 81.3124L265.235 86.1911ZM296.308 95.554L270.436 80.3057L266.374 87.1978L292.246 102.446L296.308 95.554ZM208.075 2.57238L291.214 101.572L297.34 96.4276L214.202 -2.57238L208.075 2.57238ZM262.706 85.036L266.374 87.1978L270.436 80.3057L266.768 78.144L262.706 85.036ZM208.142 23.6503L261.741 84.2403L267.733 78.9397L214.134 18.3497L208.142 23.6503ZM155.368 87.3154L214.078 23.7131L208.199 18.2869L149.489 81.8892L155.368 87.3154ZM151.176 89.9836L154.46 88.0483L150.398 81.1563L147.114 83.0915L151.176 89.9836ZM208.019 6.82552L146.026 84.0332L152.264 89.0419L214.257 11.8343L208.019 6.82552ZM271.575 81.3124L214.309 6.89054L207.968 11.7692L265.235 86.1911L271.575 81.3124ZM239.196 134.544C242.088 134.544 244.218 135.395 245.891 136.939L251.317 131.061C247.998 127.997 243.856 126.544 239.196 126.544V134.544ZM231.606 136.402C233.663 135.206 236.15 134.544 239.196 134.544V126.544C234.946 126.544 231.033 127.482 227.586 129.486L231.606 136.402ZM226.712 141.205C227.888 139.196 229.489 137.612 231.581 136.417L227.611 129.471C224.327 131.348 221.704 133.924 219.808 137.163L226.712 141.205ZM219.26 98V139.184H227.26V98H219.26ZM212.7 102H223.26V94H212.7V102ZM216.7 172.88V98H208.7V172.88H216.7ZM223.452 168.88H212.7V176.88H223.452V168.88ZM219.452 154.832V172.88H227.452V154.832H219.452ZM223.394 141.619C220.678 145.323 219.452 149.819 219.452 154.832H227.452C227.452 151.141 228.338 148.405 229.846 146.349L223.394 141.619ZM234.876 135.664C230.176 135.664 226.286 137.79 223.429 141.573L229.811 146.395C231.306 144.418 232.92 143.664 234.876 143.664V135.664ZM242.849 138.917C240.788 136.613 237.906 135.749 234.99 135.666L234.762 143.662C236.326 143.707 236.772 144.123 236.887 144.251L242.849 138.917ZM245.781 146.334C245.611 143.537 244.726 140.895 242.772 138.833L236.964 144.335C237.314 144.705 237.709 145.391 237.795 146.818L245.781 146.334ZM245.788 172.88V146.576H237.788V172.88H245.788ZM252.54 168.88H241.788V176.88H252.54V168.88ZM248.54 142.736V172.88H256.54V142.736H248.54ZM245.97 137.01C247.63 138.463 248.496 140.283 248.541 142.807L256.539 142.665C256.456 138.021 254.698 134.017 251.238 130.99L245.97 137.01ZM190.775 132.272V114.416H182.775V132.272H190.775ZM197.336 128.272H186.775V136.272H197.336V128.272ZM201.336 140.72V132.272H193.336V140.72H201.336ZM186.775 144.72H197.336V136.72H186.775V144.72ZM190.775 172.88V140.72H182.775V172.88H190.775ZM176.024 176.88H186.775V168.88H176.024V176.88ZM172.024 140.72V172.88H180.024V140.72H172.024ZM169.016 144.72H176.024V136.72H169.016V144.72ZM165.016 132.272V140.72H173.016V132.272H165.016ZM176.024 128.272H169.016V136.272H176.024V128.272ZM172.024 114.416V132.272H180.024V114.416H172.024ZM186.775 110.416H176.024V118.416H186.775V110.416ZM91.8942 158.256C89.3281 160.02 87.0637 160.72 85.0403 160.72V168.72C89.0328 168.72 92.8484 167.308 96.4264 164.848L91.8942 158.256ZM102.464 167.426L97.5683 159.458L90.7522 163.646L95.6482 171.614L102.464 167.426ZM93.3132 176.579C96.094 175.652 98.7118 174.434 101.158 172.923L96.9543 166.117C95.0487 167.294 92.9946 168.252 90.7834 168.989L93.3132 176.579ZM84.8483 177.936C87.6001 177.936 90.3975 177.477 93.2246 176.607L90.8719 168.961C88.707 169.627 86.7044 169.936 84.8483 169.936V177.936ZM70.7638 174.676C74.9032 176.899 79.6416 177.936 84.8483 177.936V169.936C80.7109 169.936 77.3213 169.117 74.5488 167.628L70.7638 174.676ZM61.3071 165.449C63.5413 169.378 66.7135 172.46 70.7362 174.661L74.5763 167.643C71.815 166.132 69.7392 164.094 68.2614 161.495L61.3071 165.449ZM58.0963 152.24C58.0963 157.045 59.1206 161.468 61.2779 165.397L68.2906 161.547C66.8639 158.948 66.0963 155.883 66.0963 152.24H58.0963ZM61.7616 139.2C59.3194 143.168 58.0963 147.544 58.0963 152.24H66.0963C66.0963 149 66.9211 146.08 68.5749 143.392L61.7616 139.2ZM71.6048 129.912C67.4896 132.157 64.1848 135.262 61.7616 139.2L68.5749 143.392C70.2478 140.674 72.5109 138.531 75.4357 136.936L71.6048 129.912ZM85.0403 126.448C80.2134 126.448 75.6939 127.607 71.5562 129.939L75.4843 136.909C78.3866 135.273 81.5472 134.448 85.0403 134.448V126.448ZM101.435 132.363C96.9616 128.36 91.397 126.448 85.0403 126.448V134.448C89.6916 134.448 93.2789 135.8 96.1011 138.325L101.435 132.363ZM109.982 148.167C108.632 141.634 105.852 136.237 101.406 132.337L96.1305 138.351C98.981 140.851 101.064 144.542 102.147 149.785L109.982 148.167ZM76.0471 163.326L107.343 152.766L104.785 145.186L73.4894 155.746L76.0471 163.326ZM80.8771 159.798C79.7134 159.216 78.8134 158.413 78.1161 157.347L71.4204 161.725C72.8991 163.987 74.8791 165.744 77.2994 166.954L80.8771 159.798ZM85.0403 160.72C83.4307 160.72 82.0669 160.393 80.8771 159.798L77.2994 166.954C79.6936 168.151 82.2978 168.72 85.0403 168.72V160.72ZM78.7696 145.155C80.1426 143.66 81.8347 142.896 84.1763 142.896V134.896C79.7338 134.896 75.8579 136.5 72.8789 139.742L78.7696 145.155ZM76.6563 151.664C76.6563 148.673 77.4712 146.611 78.8094 145.11L72.8391 139.786C69.9533 143.021 68.6563 147.103 68.6563 151.664H76.6563ZM76.6978 152.638C76.6979 152.639 76.697 152.633 76.6953 152.621C76.6937 152.608 76.6915 152.59 76.689 152.566C76.684 152.518 76.6784 152.452 76.6734 152.365C76.6631 152.19 76.6563 151.959 76.6563 151.664H68.6563C68.6563 152.442 68.6885 153.245 68.8067 153.954L76.6978 152.638ZM92.7232 141.944L71.4112 149.528L74.0933 157.065L95.4053 149.481L92.7232 141.944ZM87.9175 143.939C88.9689 144.781 89.7887 145.86 90.3755 147.259L97.753 144.165C96.6758 141.596 95.0636 139.411 92.915 137.693L87.9175 143.939ZM84.1763 142.896C86.0598 142.896 87.1887 143.356 87.9175 143.939L92.915 137.693C90.4438 135.716 87.4127 134.896 84.1763 134.896V142.896ZM44.6171 131.061C41.2976 127.997 37.1561 126.544 32.496 126.544V134.544C35.3879 134.544 37.5184 135.395 39.1909 136.939L44.6171 131.061ZM49.8394 142.665C49.7564 138.021 47.9976 134.017 44.538 130.99L39.27 137.01C40.9304 138.463 41.7956 140.283 41.8406 142.807L49.8394 142.665ZM49.84 172.88V142.736H41.84V172.88H49.84ZM35.088 176.88H45.84V168.88H35.088V176.88ZM31.088 146.576V172.88H39.088V146.576H31.088ZM30.2642 144.335C30.6143 144.705 31.0088 145.391 31.0953 146.818L39.0807 146.334C38.9112 143.537 38.0257 140.895 36.0718 138.833L30.2642 144.335ZM28.0618 143.662C29.6265 143.707 30.0721 144.123 30.187 144.251L36.149 138.917C34.0879 136.613 31.2055 135.749 28.2902 135.666L28.0618 143.662ZM23.1115 146.395C24.6055 144.418 26.22 143.664 28.176 143.664V135.664C23.4761 135.664 19.5865 137.79 16.7285 141.573L23.1115 146.395ZM20.752 154.832C20.752 151.058 21.647 148.348 23.12 146.384L16.72 141.584C13.969 145.252 12.752 149.774 12.752 154.832H20.752ZM20.752 172.88V154.832H12.752V172.88H20.752ZM6 176.88H16.752V168.88H6V176.88ZM2 132.272V172.88H10V132.272H2ZM15.696 128.272H6V136.272H15.696V128.272ZM20.4414 139.048L19.6734 131.848L11.7186 132.696L12.4866 139.896L20.4414 139.048ZM20.8505 129.451C17.4125 131.37 14.7488 134.119 12.9191 137.619L20.0089 141.325C21.1232 139.193 22.6835 137.59 24.7495 136.437L20.8505 129.451ZM32.496 126.544C28.2444 126.544 24.3154 127.482 20.824 129.466L24.776 136.422C26.9166 135.206 29.4516 134.544 32.496 134.544V126.544ZM148.555 170.451L138.283 157.011L131.927 161.869L142.199 175.309L148.555 170.451ZM158.042 168.88H145.377V176.88H158.042V168.88ZM154.042 172.867L154.02 179.477L162.02 179.504L162.042 172.893L154.042 172.867ZM154.02 179.477L154 185.477L162 185.504L162.02 179.504L154.02 179.477ZM157.987 189.491L163.987 189.511L164.013 181.511L158.013 181.491L157.987 189.491ZM163.987 189.511L257.986 189.823L258.013 181.823L164.013 181.511L163.987 189.511ZM257.986 189.823L263.986 189.843L264.013 181.843L258.013 181.823L257.986 189.823ZM267.999 185.856L268.019 179.856L260.019 179.83L259.999 185.83L267.999 185.856ZM268.019 179.856L268.304 94.3657L260.304 94.3391L260.019 179.83L268.019 179.856ZM268.304 94.3657L268.324 88.3657L260.324 88.3391L260.304 94.3391L268.304 94.3657ZM264.337 84.3525L258.337 84.3325L258.31 92.3325L264.31 92.3524L264.337 84.3525ZM258.337 84.3325L164.337 84.02L164.311 92.0199L258.31 92.3325L258.337 84.3325ZM164.337 84.02L158.337 84L158.311 92L164.311 92.0199L164.337 84.02ZM154.324 87.9867L154.304 93.9867L162.304 94.0133L162.324 88.0133L154.324 87.9867ZM154.304 93.9867L154.043 172.477L162.043 172.503L162.304 94.0133L154.304 93.9867ZM139.302 154.263L154.848 174.897L161.238 170.083L145.692 149.449L139.302 154.263ZM153.26 129.944L139.244 149.528L145.75 154.184L159.766 134.6L153.26 129.944ZM145.761 136.272H156.513V128.272H145.761V136.272ZM140.886 147.466L149.142 134.41L142.38 130.134L134.124 143.19L140.886 147.466ZM124.428 134.687L134.316 147.743L140.694 142.913L130.806 129.857L124.428 134.687ZM114.273 136.272H127.617V128.272H114.273V136.272ZM132.909 150.102L117.453 129.846L111.093 134.698L126.549 154.954L132.909 150.102ZM117.975 175.251L132.951 154.899L126.507 150.157L111.531 170.509L117.975 175.251ZM125.601 168.88H114.753V176.88H125.601V168.88ZM131.839 157.131L122.335 170.571L128.867 175.189L138.371 161.749L131.839 157.131ZM268.211 139.105C265.923 143.071 264.796 147.446 264.796 152.144H272.796C272.796 148.778 273.589 145.793 275.141 143.103L268.211 139.105ZM277.944 129.804C273.858 131.998 270.6 135.097 268.24 139.056L275.112 143.152C276.72 140.455 278.903 138.37 281.729 136.852L277.944 129.804ZM291.644 126.448C286.63 126.448 282.011 127.544 277.894 129.831L281.779 136.825C284.574 135.272 287.827 134.448 291.644 134.448V126.448ZM305.327 129.847C301.257 127.544 296.657 126.448 291.644 126.448V134.448C295.463 134.448 298.671 135.272 301.386 136.809L305.327 129.847ZM314.818 139.156C312.578 135.14 309.357 132.01 305.249 129.804L301.464 136.852C304.267 138.358 306.358 140.412 307.831 143.052L314.818 139.156ZM318.108 152.144C318.108 147.42 317.031 143.047 314.801 139.127L307.847 143.081C309.33 145.689 310.108 148.676 310.108 152.144H318.108ZM314.818 165.228C317.031 161.26 318.108 156.869 318.108 152.144H310.108C310.108 155.611 309.33 158.644 307.831 161.332L314.818 165.228ZM305.299 174.553C309.361 172.296 312.563 169.193 314.801 165.257L307.847 161.303C306.373 163.895 304.264 165.976 301.414 167.559L305.299 174.553ZM291.548 177.936C296.614 177.936 301.249 176.845 305.327 174.537L301.386 167.575C298.68 169.107 295.442 169.936 291.548 169.936V177.936ZM278.047 174.922C282.125 176.961 286.654 177.936 291.548 177.936V169.936C287.738 169.936 284.459 169.183 281.625 167.766L278.047 174.922ZM268.258 165.838C270.63 169.741 273.901 172.772 277.995 174.895L281.678 167.793C278.859 166.332 276.69 164.307 275.094 161.682L268.258 165.838ZM264.796 152.144C264.796 157.155 265.891 161.737 268.211 165.759L275.141 161.761C273.621 159.127 272.796 155.965 272.796 152.144H264.796ZM285.981 158.784C284.46 157.089 283.644 154.996 283.644 152.24H275.644C275.644 156.78 277.068 160.831 280.027 164.128L285.981 158.784ZM291.356 161.104C289.138 161.104 287.423 160.35 285.946 158.746L280.062 164.166C283.065 167.426 286.919 169.104 291.356 169.104V161.104ZM296.823 158.789C295.455 160.318 293.75 161.104 291.356 161.104V169.104C295.874 169.104 299.801 167.458 302.785 164.123L296.823 158.789ZM299.164 152.24C299.164 155.081 298.337 157.145 296.862 158.746L302.746 164.166C305.752 160.903 307.164 156.823 307.164 152.24H299.164ZM296.862 145.734C298.337 147.335 299.164 149.399 299.164 152.24H307.164C307.164 147.657 305.752 143.577 302.746 140.314L296.862 145.734ZM291.356 143.28C293.714 143.28 295.41 144.07 296.789 145.653L302.819 140.395C299.847 136.986 295.911 135.28 291.356 135.28V143.28ZM286.015 145.754C287.514 144.04 289.211 143.28 291.356 143.28V135.28C286.846 135.28 282.974 137.08 279.994 140.486L286.015 145.754ZM283.644 152.24C283.644 149.568 284.448 147.501 285.981 145.792L280.027 140.448C277.081 143.731 275.644 147.744 275.644 152.24H283.644ZM382.91 134.448C386.095 134.448 388.139 135.324 389.53 136.676L395.107 130.94C391.889 127.812 387.661 126.448 382.91 126.448V134.448ZM376.936 136.124C378.935 134.974 380.909 134.448 382.91 134.448V126.448C379.407 126.448 376.069 127.394 372.948 129.188L376.936 136.124ZM371.984 140.942C373.32 138.836 374.968 137.256 376.936 136.124L372.948 129.188C369.797 131 367.221 133.516 365.228 136.658L371.984 140.942ZM362.061 136.043C363.394 136.88 364.276 138.055 364.737 139.813L372.476 137.787C371.528 134.169 369.466 131.248 366.319 129.269L362.061 136.043ZM356.03 134.448C358.69 134.448 360.579 135.043 361.949 135.969L366.431 129.343C363.449 127.325 359.898 126.448 356.03 126.448V134.448ZM349.027 136.204C350.969 135.067 353.264 134.448 356.03 134.448V126.448C352.012 126.448 348.291 127.365 344.986 129.3L349.027 136.204ZM344.296 141.258C345.51 138.981 347.088 137.339 349.027 136.204L344.986 129.3C341.676 131.237 339.094 134.011 337.237 137.494L344.296 141.258ZM335.931 132.755L336.795 139.859L344.737 138.893L343.873 131.789L335.931 132.755ZM330.206 136.272H339.902V128.272H330.206V136.272ZM334.206 172.88V132.272H326.206V172.88H334.206ZM340.958 168.88H330.206V176.88H340.958V168.88ZM336.958 154.64V172.88H344.958V154.64H336.958ZM338.574 145.99C337.497 148.761 336.958 151.653 336.958 154.64H344.958C344.958 152.635 345.316 150.727 346.03 148.89L338.574 145.99ZM343.654 138.818C341.44 140.692 339.778 143.097 338.61 145.902L345.994 148.978C346.746 147.175 347.708 145.868 348.822 144.926L343.654 138.818ZM351.998 135.76C348.874 135.76 346.039 136.801 343.654 138.818L348.822 144.926C349.765 144.128 350.77 143.76 351.998 143.76V135.76ZM359.523 139.517C357.773 136.959 355.007 135.946 352.256 135.768L351.741 143.752C352.358 143.792 352.682 143.904 352.819 143.97C352.884 144.001 352.909 144.022 352.912 144.025C352.915 144.026 352.916 144.027 352.921 144.035L359.523 139.517ZM361.751 146.526C361.594 143.94 360.945 141.442 359.442 139.403L353.002 144.149C353.292 144.542 353.666 145.372 353.766 147.01L361.751 146.526ZM361.758 172.88V146.768H353.758V172.88H361.758ZM368.606 168.88H357.758V176.88H368.606V168.88ZM364.606 154.64V172.88H372.606V154.64H364.606ZM368.491 141.988C365.941 145.653 364.682 149.901 364.607 154.576L372.606 154.705C372.658 151.443 373.512 148.779 375.058 146.556L368.491 141.988ZM379.838 135.76C375.047 135.76 371.179 138.039 368.468 142.021L375.081 146.523C376.466 144.489 377.973 143.76 379.838 143.76V135.76ZM387.267 139.517C385.542 136.995 382.842 135.951 380.104 135.769L379.572 143.751C380.143 143.789 380.436 143.896 380.555 143.954C380.646 143.999 380.656 144.021 380.665 144.035L387.267 139.517ZM389.399 146.533C389.249 143.973 388.665 141.45 387.209 139.434L380.723 144.118C380.932 144.406 381.308 145.211 381.413 147.003L389.399 146.533ZM389.406 172.88V146.768H381.406V172.88H389.406ZM396.062 168.88H385.406V176.88H396.062V168.88ZM392.062 142.64V172.88H400.062V142.64H392.062ZM389.569 136.714C391.08 138.143 391.969 140.045 392.065 142.78L400.06 142.5C399.9 137.939 398.293 133.953 395.067 130.902L389.569 136.714ZM442.069 158.256C439.503 160.02 437.239 160.72 435.215 160.72V168.72C439.208 168.72 443.023 167.308 446.601 164.848L442.069 158.256ZM452.639 167.426L447.743 159.458L440.927 163.646L445.823 171.614L452.639 167.426ZM443.488 176.579C446.269 175.652 448.887 174.434 451.333 172.923L447.129 166.117C445.224 167.294 443.17 168.252 440.958 168.989L443.488 176.579ZM435.023 177.936C437.775 177.936 440.572 177.477 443.4 176.607L441.047 168.961C438.882 169.627 436.879 169.936 435.023 169.936V177.936ZM420.939 174.676C425.078 176.899 429.817 177.936 435.023 177.936V169.936C430.886 169.936 427.496 169.117 424.724 167.628L420.939 174.676ZM411.482 165.449C413.716 169.378 416.888 172.46 420.911 174.661L424.751 167.643C421.99 166.132 419.914 164.094 418.436 161.495L411.482 165.449ZM408.271 152.24C408.271 157.045 409.296 161.468 411.453 165.397L418.466 161.547C417.039 158.948 416.271 155.883 416.271 152.24H408.271ZM411.937 139.2C409.494 143.168 408.271 147.544 408.271 152.24H416.271C416.271 149 417.096 146.08 418.75 143.392L411.937 139.2ZM421.78 129.912C417.665 132.157 414.36 135.262 411.937 139.2L418.75 143.392C420.423 140.674 422.686 138.531 425.611 136.936L421.78 129.912ZM435.215 126.448C430.388 126.448 425.869 127.607 421.731 129.939L425.659 136.909C428.562 135.273 431.722 134.448 435.215 134.448V126.448ZM451.61 132.363C447.137 128.36 441.572 126.448 435.215 126.448V134.448C439.867 134.448 443.454 135.8 446.276 138.325L451.61 132.363ZM460.157 148.167C458.807 141.634 456.026 136.237 451.581 132.337L446.305 138.351C449.156 140.852 451.239 144.542 452.322 149.785L460.157 148.167ZM426.222 163.326L457.518 152.766L454.96 145.186L423.664 155.746L426.222 163.326ZM431.052 159.798C429.888 159.216 428.988 158.413 428.291 157.347L421.595 161.725C423.074 163.987 425.054 165.744 427.474 166.954L431.052 159.798ZM435.215 160.72C433.606 160.72 432.242 160.393 431.052 159.798L427.474 166.954C429.869 168.151 432.473 168.72 435.215 168.72V160.72ZM428.945 145.155C430.318 143.66 432.01 142.896 434.351 142.896V134.896C429.909 134.896 426.033 136.5 423.054 139.742L428.945 145.155ZM426.831 151.664C426.831 148.673 427.646 146.611 428.984 145.11L423.014 139.786C420.128 143.021 418.831 147.103 418.831 151.664H426.831ZM426.873 152.638C426.873 152.639 426.872 152.633 426.87 152.621C426.869 152.608 426.866 152.59 426.864 152.566C426.859 152.518 426.853 152.452 426.848 152.365C426.838 152.19 426.831 151.959 426.831 151.664H418.831C418.831 152.443 418.864 153.245 418.982 153.954L426.873 152.638ZM442.898 141.944L421.586 149.528L424.268 157.065L445.58 149.481L442.898 141.944ZM438.092 143.939C439.144 144.781 439.964 145.86 440.55 147.259L447.928 144.165C446.851 141.596 445.239 139.411 443.09 137.693L438.092 143.939ZM434.351 142.896C436.235 142.896 437.364 143.356 438.092 143.939L443.09 137.693C440.619 135.716 437.588 134.896 434.351 134.896V142.896ZM258.317 90.3325L164.317 90.0199L164.291 98.0199L258.29 98.3325L258.317 90.3325ZM262.019 179.836L262.304 94.3458L254.304 94.3192L254.019 179.81L262.019 179.836ZM164.007 183.511L258.006 183.823L258.033 175.823L164.033 175.511L164.007 183.511ZM160.304 94.0066L160.02 179.497L168.02 179.524L168.304 94.0332L160.304 94.0066Z" fill="#BC8B0D" mask="url(#path-1-inside-1)"/>
</g>
<defs>
<filter id="filter0_d" x="0" y="0" width="466.239" height="201.843" filterUnits="userSpaceOnUse" color-interpolation-filters="sRGB">
<feFlood flood-opacity="0" result="BackgroundImageFix"/>
<feColorMatrix in="SourceAlpha" type="matrix" values="0 0 0 0 0 0 0 0 0 0 0 0 0 0 0 0 0 0 127 0"/>
<feOffset dx="1" dy="4"/>
<feGaussianBlur stdDeviation="2"/>
<feColorMatrix type="matrix" values="0 0 0 0 0 0 0 0 0 0 0 0 0 0 0 0 0 0 0.25 0"/>
<feBlend mode="normal" in2="BackgroundImageFix" result="effect1_dropShadow"/>
<feBlend mode="normal" in="SourceGraphic" in2="effect1_dropShadow" result="shape"/>
</filter>
</defs>
</svg>
